<svg version="1.1" width="928.2" height="435" xmlns:xlink="http://www.w3.org/1999/xlink" xmlns="http://www.w3.org/2000/svg">
  <defs/>
  <g transform="matrix(1, 0, 0, 1, 432, 46)">
    <path stroke="#000000" stroke-opacity="1" stroke-width="1" fill="none" d="M 24.25 0.5 Q 20.5 0.5 16.7 1.8 Q 13.15 2.9 11.15 4.7 L 11.1 4.75 L 10.85 4.9 Q 6.55 7.45 4.2 10.95 Q 0.5 16.4 0.5 22.6 Q 0.5 28.65 3.1 33.5 Q 5.55 38.5 8.75 41.7 Q 11.95 44.85 14.5 46.25 Q 17.3 47.65 23 47.65 Q 27.55 47.65 32.85 45.15 Q 37.4 43.05 40.1 40.3 L 41.35 38.9 Q 43.5 36.35 45.05 33.2 Q 47.25 28.45 47.25 23.6 Q 47.25 15.2 41.5 8.5 L 41.1 8.05 Q 34.3 0.5 24.25 0.5 M 41.1 8.05 L 41.1 8.05 M 24.05 9.35 Q 21.8 9.35 19.5 10.15 Q 17.3 10.75 15.9 11.95 Q 13.35 13.55 11.85 15.7 Q 9.55 19 9.55 22.8 Q 9.55 26.45 11.15 29.45 Q 12.65 32.45 14.6 34.1 Q 16.5 35.8 18.2 36.6 Q 19.8 37.3 23 37.7 Q 26.05 38 29.25 36.5 Q 32.05 35.2 33.7 33.5 Q 35.5 31.65 36.7 29.25 Q 38.1 26.35 38.1 23.4 Q 38.1 18.1 34.3 13.95 Q 30.25 9.35 24.05 9.35 L 24.05 9.35 "/>
  </g>
  <g transform="matrix(1, 0, 0, 1, 299.5, 165)">
    <path stroke="#000000" stroke-opacity="1" stroke-width="1" fill="none" d="M 157.7 32.05 Q 158.65 34.7 158.65 36.5 Q 158.65 37.25 157.4 47.3 Q 156.75 47.95 156.75 49.7 Q 156.75 51.6 157.7 53.95 Q 158.65 56.25 158.65 59 Q 158.65 63.8 155 64.2 Q 146.15 64.35 135.7 65 Q 128.4 65.4 114.35 65.25 Q 101.5 65 100.55 65 Q 91.7 65 66.35 64.35 Q 46.4 63.8 31.85 64.2 Q 22.35 64.5 4 63.8 Q 1.6 56.6 1.6 46.8 Q 3.65 31.95 3.65 25.65 Q 2.75 21 3.65 18.5 Q 4 17.85 4.3 17.4 L 4.3 16.35 L 4.3 14.5 Q 4.3 6.1 4.95 0.65 Q 19.65 0.9 48 1.45 Q 65.75 1.9 78.85 1.9 Q 82.2 1.9 85.35 1.9 Q 99.3 1.75 101.85 1.3 Q 105.15 0.9 108.8 0.9 Q 112.45 0.9 158.65 2.9 L 159.9 6.8 Q 159.9 10.1 158.35 16.75 Q 156.75 23.4 156.75 26.55 Q 156.75 29.55 157.7 32.05 M 156.75 26.55 L 156.75 26.55 "/>
    <text fill="#000000" font-family="NanumGothic, serif" font-size="22" font-weight="normal">
      <tspan x="54.85" y="25.6">Main</tspan>
      <tspan x="33.55" y="52">character</tspan>
    </text>
  </g>
  <g transform="matrix(1, 0, 0, 1, 197.5, 302)">
    <path stroke="#000000" stroke-opacity="1" stroke-width="1" fill="none" d="M 157.7 32.05 Q 158.65 34.7 158.65 36.5 Q 158.65 37.25 157.4 47.3 Q 156.75 47.95 156.75 49.7 Q 156.75 51.6 157.7 53.95 Q 158.65 56.25 158.65 59 Q 158.65 63.8 155 64.2 Q 146.15 64.35 135.7 65 Q 128.4 65.4 114.35 65.25 Q 101.5 65 100.55 65 Q 91.7 65 66.35 64.35 Q 46.4 63.8 31.85 64.2 Q 22.35 64.5 4 63.8 Q 1.6 56.6 1.6 46.8 Q 3.65 31.95 3.65 25.65 Q 2.75 21 3.65 18.5 Q 4 17.85 4.3 17.4 L 4.3 16.35 L 4.3 14.5 Q 4.3 6.1 4.95 0.65 Q 19.65 0.9 48 1.45 Q 65.75 1.9 78.85 1.9 Q 82.2 1.9 85.35 1.9 Q 99.3 1.75 101.85 1.3 Q 105.15 0.9 108.8 0.9 Q 112.45 0.9 158.65 2.9 L 159.9 6.8 Q 159.9 10.1 158.35 16.75 Q 156.75 23.4 156.75 26.55 Q 156.75 29.55 157.7 32.05 M 156.75 26.55 L 156.75 26.55 "/>
    <text fill="#000000" font-family="NanumGothic, serif" font-size="22" font-weight="normal">
      <tspan x="48.75" y="39.6">Guitar</tspan>
    </text>
  </g>
  <g transform="matrix(1, 0, 0, 1, 387.5, 301)">
    <path stroke="#000000" stroke-opacity="1" stroke-width="1" fill="none" d="M 157.7 32.05 Q 158.65 34.7 158.65 36.5 Q 158.65 37.25 157.4 47.3 Q 156.75 47.95 156.75 49.7 Q 156.75 51.6 157.7 53.95 Q 158.65 56.25 158.65 59 Q 158.65 63.8 155 64.2 Q 146.15 64.35 135.7 65 Q 128.4 65.4 114.35 65.25 Q 101.5 65 100.55 65 Q 91.7 65 66.35 64.35 Q 46.4 63.8 31.85 64.2 Q 22.35 64.5 4 63.8 Q 1.6 56.6 1.6 46.8 Q 3.65 31.95 3.65 25.65 Q 2.75 21 3.65 18.5 Q 4 17.85 4.3 17.4 L 4.3 16.35 L 4.3 14.5 Q 4.3 6.1 4.95 0.65 Q 19.65 0.9 48 1.45 Q 65.75 1.9 78.85 1.9 Q 82.2 1.9 85.35 1.9 Q 99.3 1.75 101.85 1.3 Q 105.15 0.9 108.8 0.9 Q 112.45 0.9 158.65 2.9 L 159.9 6.8 Q 159.9 10.1 158.35 16.75 Q 156.75 23.4 156.75 26.55 Q 156.75 29.55 157.7 32.05 M 156.75 26.55 L 156.75 26.55 "/>
    <text fill="#000000" font-family="NanumGothic, serif" font-size="22" font-weight="normal">
      <tspan x="46" y="39.6">Flames</tspan>
    </text>
  </g>
  <g transform="matrix(1, 0, 0, 1, 528.6, 153)">
    <path stroke="#000000" stroke-opacity="1" stroke-width="1" fill="none" d="M 18 99.75 Q 15.45 98.7 13.4 98.7 Q 9.75 99.75 8.95 99.75 L 1.2 98.3 L 1.1 98.3 L 1.3 79.65 Q 1.3 76.1 0.9 72.4 Q 0.5 68.65 0.5 62.85 Q 0.5 52.25 1.8 3.9 Q 2.15 3.5 4.25 3.1 Q 6.1 2.7 7.4 2.9 Q 8.55 2.9 9.85 1.25 L 12.7 1 Q 13.8 1 14.85 1.65 Q 15.95 2.25 18.2 2.25 "/>
  </g>
  <g transform="matrix(1, 0, 0, 1, 549.5, 173)">
    <path stroke="#000000" stroke-opacity="1" stroke-width="1" fill="none" d="M 101.45 32.05 Q 102.05 34.7 102.05 36.5 Q 102.05 37.25 101.25 47.3 Q 100.8 47.95 100.8 49.7 Q 100.8 51.6 101.45 53.95 Q 102.05 56.25 102.05 59 Q 102.05 63.8 99.7 64.2 Q 94 64.35 87.3 65 Q 82.6 65.4 73.55 65.25 Q 65.3 65 64.7 65 Q 58.95 65 42.7 64.35 Q 29.85 63.8 20.5 64.2 Q 14.4 64.5 2.55 63.8 Q 1.05 56.6 1.05 46.8 Q 2.35 31.95 2.35 25.65 Q 1.75 21 2.35 18.5 Q 2.55 17.85 2.75 17.4 L 2.75 16.35 L 2.75 14.5 Q 2.75 6.1 3.2 0.65 Q 12.65 0.9 30.85 1.45 Q 42.25 1.9 50.7 1.9 L 54.9 1.9 Q 63.85 1.75 65.5 1.3 Q 67.65 0.9 69.95 0.9 Q 72.3 0.9 102.05 2.9 L 102.85 6.8 Q 102.85 10.1 101.85 16.75 Q 100.8 23.4 100.8 26.55 Q 100.8 29.55 101.45 32.05 M 100.8 26.55 L 100.8 26.55 "/>
    <text fill="#000000" font-family="NanumGothic, serif" font-size="22" font-weight="normal">
      <tspan x="16" y="39.6">Hipster</tspan>
    </text>
  </g>
  <g transform="matrix(1, 0, 0, 1, 671.5, 173)">
    <path stroke="#000000" stroke-opacity="1" stroke-width="1" fill="none" d="M 101.45 32.05 Q 102.05 34.7 102.05 36.5 Q 102.05 37.25 101.25 47.3 Q 100.8 47.95 100.8 49.7 Q 100.8 51.6 101.45 53.95 Q 102.05 56.25 102.05 59 Q 102.05 63.8 99.7 64.2 Q 94 64.35 87.3 65 Q 82.6 65.4 73.55 65.25 Q 65.3 65 64.7 65 Q 58.95 65 42.7 64.35 Q 29.85 63.8 20.5 64.2 Q 14.4 64.5 2.55 63.8 Q 1.05 56.6 1.05 46.8 Q 2.35 31.95 2.35 25.65 Q 1.75 21 2.35 18.5 Q 2.55 17.85 2.75 17.4 L 2.75 16.35 L 2.75 14.5 Q 2.75 6.1 3.2 0.65 Q 12.65 0.9 30.85 1.45 Q 42.25 1.9 50.7 1.9 L 54.9 1.9 Q 63.85 1.75 65.5 1.3 Q 67.65 0.9 69.95 0.9 Q 72.3 0.9 102.05 2.9 L 102.85 6.8 Q 102.85 10.1 101.85 16.75 Q 100.8 23.4 100.8 26.55 Q 100.8 29.55 101.45 32.05 M 100.8 26.55 L 100.8 26.55 "/>
    <text fill="#000000" font-family="NanumGothic, serif" font-size="22" font-weight="normal">
      <tspan x="16" y="39.6">Hipster</tspan>
    </text>
  </g>
  <g transform="matrix(1, 0, 0, 1, 798.5, 172)">
    <path stroke="#000000" stroke-opacity="1" stroke-width="1" fill="none" d="M 101.45 32.05 Q 102.05 34.7 102.05 36.5 Q 102.05 37.25 101.25 47.3 Q 100.8 47.95 100.8 49.7 Q 100.8 51.6 101.45 53.95 Q 102.05 56.25 102.05 59 Q 102.05 63.8 99.7 64.2 Q 94 64.35 87.3 65 Q 82.6 65.4 73.55 65.25 Q 65.3 65 64.7 65 Q 58.95 65 42.7 64.35 Q 29.85 63.8 20.5 64.2 Q 14.4 64.5 2.55 63.8 Q 1.05 56.6 1.05 46.8 Q 2.35 31.95 2.35 25.65 Q 1.75 21 2.35 18.5 Q 2.55 17.85 2.75 17.4 L 2.75 16.35 L 2.75 14.5 Q 2.75 6.1 3.2 0.65 Q 12.65 0.9 30.85 1.45 Q 42.25 1.9 50.7 1.9 L 54.9 1.9 Q 63.85 1.75 65.5 1.3 Q 67.65 0.9 69.95 0.9 Q 72.3 0.9 102.05 2.9 L 102.85 6.8 Q 102.85 10.1 101.85 16.75 Q 100.8 23.4 100.8 26.55 Q 100.8 29.55 101.45 32.05 M 100.8 26.55 L 100.8 26.55 "/>
    <text fill="#000000" font-family="NanumGothic, serif" font-size="22" font-weight="normal">
      <tspan x="22.7" y="25.6">Flying</tspan>
      <tspan x="18" y="52">muffin</tspan>
    </text>
  </g>
  <g transform="matrix(1, 0, 0, 1, 898.2, 157)">
    <path stroke="#000000" stroke-opacity="1" stroke-width="1" fill="none" d="M 0.7 0.95 Q 3.25 1.95 5.3 1.95 Q 8.95 0.95 9.75 0.95 L 17.5 2.35 L 17.6 2.35 L 17.4 20.1 Q 17.4 23.45 17.8 27 Q 18.2 30.55 18.2 36.1 Q 18.2 46.15 16.85 92.1 Q 16.55 92.5 14.45 92.9 Q 12.6 93.3 11.3 93.1 Q 10.15 93.1 8.85 94.65 L 6 94.85 Q 4.85 94.85 3.85 94.25 Q 2.75 93.7 0.5 93.7 "/>
  </g>
  <g transform="matrix(1, 0, 0, 1, 11, 164.35)">
    <path stroke="#000000" stroke-opacity="1" stroke-width="1" fill="none" d="M 157.7 32.05 Q 158.65 34.7 158.65 36.5 Q 158.65 37.25 157.4 47.3 Q 156.75 47.95 156.75 49.7 Q 156.75 51.6 157.7 53.95 Q 158.65 56.25 158.65 59 Q 158.65 63.8 155 64.2 Q 146.15 64.35 135.7 65 Q 128.4 65.4 114.35 65.25 Q 101.5 65 100.55 65 Q 91.7 65 66.35 64.35 Q 46.4 63.8 31.85 64.2 Q 22.35 64.5 4 63.8 Q 1.6 56.6 1.6 46.8 Q 3.65 31.95 3.65 25.65 Q 2.75 21 3.65 18.5 Q 4 17.85 4.3 17.4 L 4.3 16.35 L 4.3 14.5 Q 4.3 6.1 4.95 0.65 Q 19.65 0.9 48 1.45 Q 65.75 1.9 78.85 1.9 Q 82.2 1.9 85.35 1.9 Q 99.3 1.75 101.85 1.3 Q 105.15 0.9 108.8 0.9 Q 112.45 0.9 158.65 2.9 L 159.9 6.8 Q 159.9 10.1 158.35 16.75 Q 156.75 23.4 156.75 26.55 Q 156.75 29.55 157.7 32.05 M 156.75 26.55 L 156.75 26.55 "/>
    <text fill="#000000" font-family="NanumGothic, serif" font-size="22" font-weight="normal">
      <tspan x="26.85" y="39.6">"Wave #1"</tspan>
    </text>
  </g>
  <g transform="matrix(1, 0, 0, 1, 0, 0)">
    <path stroke="#000000" stroke-opacity="0.00784313725490196" stroke-width="10" fill="none" d="M 432 71 Q 238.05 88 91.85 164.4 "/>
    <path stroke="#000000" stroke-opacity="1" stroke-width="1" fill="none" d="M 432 71 Q 238.05 88 91.85 164.4 "/>
    <path stroke="#000000" stroke-opacity="1" stroke-width="1" fill="none" d="M 105.35 168.65 L 91.85 164.4 L 96.1 150.9 "/>
  </g>
  <g transform="matrix(1, 0, 0, 1, 0, 0)">
    <path stroke="#000000" stroke-opacity="0.00784313725490196" stroke-width="10" fill="none" d="M 432 96 Q 393 122 380.35 165 "/>
    <path stroke="#000000" stroke-opacity="1" stroke-width="1" fill="none" d="M 432 96 Q 393 122 380.35 165 "/>
    <path stroke="#000000" stroke-opacity="1" stroke-width="1" fill="none" d="M 392.75 158.25 L 380.35 165 L 373.6 152.6 "/>
  </g>
  <g transform="matrix(1, 0, 0, 1, 0, 0)">
    <path stroke="#000000" stroke-opacity="0.00784313725490196" stroke-width="10" fill="none" d="M 380.35 231 Q 330.2 246.5 278.35 302 "/>
    <path stroke="#000000" stroke-opacity="1" stroke-width="1" fill="none" d="M 380.35 231 Q 330.2 246.5 278.35 302 "/>
    <path stroke="#000000" stroke-opacity="1" stroke-width="1" fill="none" d="M 292.5 301.5 L 278.35 302 L 277.85 287.85 "/>
  </g>
  <g transform="matrix(1, 0, 0, 1, 0, 0)">
    <path stroke="#000000" stroke-opacity="0.00784313725490196" stroke-width="10" fill="none" d="M 380.35 231 Q 427.35 247.5 468.35 301 "/>
    <path stroke="#000000" stroke-opacity="1" stroke-width="1" fill="none" d="M 380.35 231 Q 427.35 247.5 468.35 301 "/>
    <path stroke="#000000" stroke-opacity="1" stroke-width="1" fill="none" d="M 470.2 287 L 468.35 301 L 454.35 299.15 "/>
  </g>
  <g transform="matrix(1, 0, 0, 1, 0, 0)">
    <path stroke="#000000" stroke-opacity="0.00784313725490196" stroke-width="10" fill="none" d="M 482 71 Q 666 50 726 155 "/>
    <path stroke="#000000" stroke-opacity="1" stroke-width="1" fill="none" d="M 482 71 Q 666 50 726 155 "/>
    <path stroke="#000000" stroke-opacity="1" stroke-width="1" fill="none" d="M 729.7 141.35 L 726 155 L 712.35 151.3 "/>
  </g>
  <g transform="matrix(1, 0, 0, 1, 715, 256)">
    <path stroke="#000000" stroke-opacity="0" stroke-width="1" fill="none" d="M 199.6 48.6 Q 198.75 49.5 197.5 49.5 L 3.5 49.5 Q 2.25 49.5 1.4 48.6 Q 0.5 47.75 0.5 46.5 L 0.5 3.5 Q 0.5 2.25 1.4 1.4 Q 2.25 0.5 3.5 0.5 L 197.5 0.5 Q 198.75 0.5 199.6 1.4 Q 200.5 2.25 200.5 3.5 L 200.5 46.5 Q 200.5 47.75 199.6 48.6 "/>
    <text fill="#000000" font-family="NanumGothic, serif" font-size="24" font-weight="normal">
      <tspan x="124.5" y="24.2">Group</tspan>
    </text>
  </g>
  <g transform="matrix(1, 0, 0, 1, 10, 233)">
    <path stroke="#000000" stroke-opacity="0" stroke-width="1" fill="none" d="M 148.6 48.6 Q 147.75 49.5 146.5 49.5 L 3.5 49.5 Q 2.25 49.5 1.4 48.6 Q 0.5 47.75 0.5 46.5 L 0.5 3.5 Q 0.5 2.25 1.4 1.4 Q 2.25 0.5 3.5 0.5 L 146.5 0.5 Q 147.75 0.5 148.6 1.4 Q 149.5 2.25 149.5 3.5 L 149.5 46.5 Q 149.5 47.75 148.6 48.6 "/>
    <text fill="#000000" font-family="NanumGothic, serif" font-size="24" font-weight="normal">
      <tspan x="5" y="24.2">Text</tspan>
    </text>
  </g>
  <g transform="matrix(1, 0, 0, 1, 198, 375)">
    <path stroke="#000000" stroke-opacity="0" stroke-width="1" fill="none" d="M 148.6 48.6 Q 147.75 49.5 146.5 49.5 L 3.5 49.5 Q 2.25 49.5 1.4 48.6 Q 0.5 47.75 0.5 46.5 L 0.5 3.5 Q 0.5 2.25 1.4 1.4 Q 2.25 0.5 3.5 0.5 L 146.5 0.5 Q 147.75 0.5 148.6 1.4 Q 149.5 2.25 149.5 3.5 L 149.5 46.5 Q 149.5 47.75 148.6 48.6 "/>
    <text fill="#000000" font-family="NanumGothic, serif" font-size="24" font-weight="normal">
      <tspan x="5" y="24.2">Sprite</tspan>
    </text>
  </g>
  <g transform="matrix(1, 0, 0, 1, 299, 131)">
    <path stroke="#000000" stroke-opacity="0" stroke-width="1" fill="none" d="M 148.6 48.6 Q 147.75 49.5 146.5 49.5 L 3.5 49.5 Q 2.25 49.5 1.4 48.6 Q 0.5 47.75 0.5 46.5 L 0.5 3.5 Q 0.5 2.25 1.4 1.4 Q 2.25 0.5 3.5 0.5 L 146.5 0.5 Q 147.75 0.5 148.6 1.4 Q 149.5 2.25 149.5 3.5 L 149.5 46.5 Q 149.5 47.75 148.6 48.6 "/>
    <text fill="#000000" font-family="NanumGothic, serif" font-size="24" font-weight="normal">
      <tspan x="5" y="24.2">Sprite</tspan>
    </text>
  </g>
  <g transform="matrix(1, 0, 0, 1, 385, 370)">
    <path stroke="#000000" stroke-opacity="0" stroke-width="1" fill="none" d="M 172.6 48.6 Q 171.75 49.5 170.5 49.5 L 3.5 49.5 Q 2.25 49.5 1.4 48.6 Q 0.5 47.75 0.5 46.5 L 0.5 3.5 Q 0.5 2.25 1.4 1.4 Q 2.25 0.5 3.5 0.5 L 170.5 0.5 Q 171.75 0.5 172.6 1.4 Q 173.5 2.25 173.5 3.5 L 173.5 46.5 Q 173.5 47.75 172.6 48.6 "/>
    <text fill="#000000" font-family="NanumGothic, serif" font-size="24" font-weight="normal">
      <tspan x="5" y="24.2">Particles</tspan>
    </text>
  </g>
  <g transform="matrix(1, 0, 0, 1, 427, 10)">
    <path stroke="#000000" stroke-opacity="0" stroke-width="1" fill="none" d="M 66.6 48.6 Q 65.75 49.5 64.5 49.5 L 3.5 49.5 Q 2.25 49.5 1.4 48.6 Q 0.5 47.75 0.5 46.5 L 0.5 3.5 Q 0.5 2.25 1.4 1.4 Q 2.25 0.5 3.5 0.5 L 64.5 0.5 Q 65.75 0.5 66.6 1.4 Q 67.5 2.25 67.5 3.5 L 67.5 46.5 Q 67.5 47.75 66.6 48.6 "/>
    <text fill="#000000" font-family="NanumGothic, serif" font-size="24" font-weight="normal">
      <tspan x="5" y="24.2">Root</tspan>
    </text>
  </g>
</svg>
