<svg version="1.1" width="672" height="479.9" xmlns:xlink="http://www.w3.org/1999/xlink" xmlns="http://www.w3.org/2000/svg">
  <defs/>
  <g transform="matrix(1, 0, 0, 1, 21.35, 115.85)">
    <path stroke="#000000" stroke-opacity="1" stroke-width="1" fill="none" d="M 169.7 35 Q 170.75 37.85 170.75 39.85 Q 170.7 40.6 169.35 51.6 Q 168.7 52.3 168.7 54.2 Q 168.7 56.25 169.7 58.85 Q 170.75 61.35 170.75 64.35 Q 170.75 69.6 166.8 70 Q 157.25 70.2 146 70.95 Q 138.2 71.35 123.05 71.2 Q 109.25 70.95 108.2 70.95 Q 98.65 70.95 71.4 70.2 Q 49.95 69.6 34.25 70 Q 24.05 70.35 4.3 69.6 Q 1.75 61.75 1.75 51.05 Q 3.95 34.85 3.95 28 Q 2.95 22.9 3.95 20.15 Q 4.3 19.45 4.65 19 L 4.65 17.85 L 4.65 15.8 Q 4.65 6.65 5.3 0.7 Q 21.15 1 51.65 1.55 Q 70.75 2.05 84.85 2.05 Q 88.45 2.05 91.85 2.05 Q 106.85 1.9 109.55 1.4 Q 113.15 1 117.05 1 Q 121 1 170.7 3.2 L 172.1 7.4 Q 172.1 11 170.4 18.25 Q 168.7 25.55 168.7 29 Q 168.7 32.25 169.7 35 M 168.7 29 L 168.7 29 "/>
    <text fill="#000000" font-family="NanumGothic, serif" font-size="24" font-weight="normal">
      <tspan x="47.55" y="28.2">Render</tspan>
      <tspan x="40.7" y="57">IMAGES</tspan>
    </text>
  </g>
  <g transform="matrix(1, 0, 0, 1, 110.8, 11.25)">
    <path stroke="#000000" stroke-opacity="1" stroke-width="1" fill="none" d="M 172.65 35 Q 173.65 37.85 173.65 39.85 Q 173.65 40.6 172.3 51.6 Q 171.6 52.3 171.6 54.2 Q 171.6 56.25 172.65 58.85 Q 173.65 61.35 173.65 64.35 Q 173.65 69.6 169.7 70 Q 160 70.2 148.55 70.95 Q 140.55 71.35 125.15 71.2 Q 111.1 70.95 110.05 70.95 Q 100.35 70.95 72.65 70.2 Q 50.8 69.6 34.85 70 Q 24.45 70.35 4.35 69.6 Q 1.75 61.75 1.75 51.05 Q 4 34.85 4 28 Q 3 22.9 4 20.15 Q 4.35 19.45 4.7 19 L 4.7 17.85 L 4.7 15.8 Q 4.7 6.65 5.4 0.7 Q 21.5 1 52.55 1.55 Q 71.95 2.05 86.35 2.05 L 93.45 2.05 Q 108.7 1.9 111.45 1.4 Q 115.1 1 119.1 1 Q 123.05 1 173.65 3.2 L 175.05 7.4 Q 175.05 11 173.3 18.25 Q 171.6 25.55 171.6 29 Q 171.6 32.25 172.65 35 M 171.6 29 L 171.6 29 "/>
    <text fill="#000000" font-family="NanumGothic, serif" font-size="24" font-weight="normal">
      <tspan x="17.7" y="43.2">Render TEXT</tspan>
    </text>
  </g>
  <g transform="matrix(1, 0, 0, 1, 352.5, 10)">
    <path stroke="#000000" stroke-opacity="1" stroke-width="1" fill="none" d="M 172.65 35 Q 173.65 37.85 173.65 39.85 Q 173.65 40.6 172.3 51.6 Q 171.6 52.3 171.6 54.2 Q 171.6 56.25 172.65 58.85 Q 173.65 61.35 173.65 64.35 Q 173.65 69.6 169.7 70 Q 160 70.2 148.55 70.95 Q 140.55 71.35 125.15 71.2 Q 111.1 70.95 110.05 70.95 Q 100.35 70.95 72.65 70.2 Q 50.8 69.6 34.85 70 Q 24.45 70.35 4.35 69.6 Q 1.75 61.75 1.75 51.05 Q 4 34.85 4 28 Q 3 22.9 4 20.15 Q 4.35 19.45 4.7 19 L 4.7 17.85 L 4.7 15.8 Q 4.7 6.65 5.4 0.7 Q 21.5 1 52.55 1.55 Q 71.95 2.05 86.35 2.05 L 93.45 2.05 Q 108.7 1.9 111.45 1.4 Q 115.1 1 119.1 1 Q 123.05 1 173.65 3.2 L 175.05 7.4 Q 175.05 11 173.3 18.25 Q 171.6 25.55 171.6 29 Q 171.6 32.25 172.65 35 M 171.6 29 L 171.6 29 "/>
    <text fill="#000000" font-family="NanumGothic, serif" font-size="24" font-weight="normal">
      <tspan x="30.85" y="43.2">Get INPUT</tspan>
    </text>
  </g>
  <g transform="matrix(1, 0, 0, 1, 411.5, 122.65)">
    <path stroke="#000000" stroke-opacity="1" stroke-width="1" fill="none" d="M 169.7 35 Q 170.75 37.85 170.75 39.85 Q 170.7 40.6 169.35 51.6 Q 168.7 52.3 168.7 54.2 Q 168.7 56.25 169.7 58.85 Q 170.75 61.35 170.75 64.35 Q 170.75 69.6 166.8 70 Q 157.25 70.2 146 70.95 Q 138.2 71.35 123.05 71.2 Q 109.25 70.95 108.2 70.95 Q 98.65 70.95 71.4 70.2 Q 49.95 69.6 34.25 70 Q 24.05 70.35 4.3 69.6 Q 1.75 61.75 1.75 51.05 Q 3.95 34.85 3.95 28 Q 2.95 22.9 3.95 20.15 Q 4.3 19.45 4.65 19 L 4.65 17.85 L 4.65 15.8 Q 4.65 6.65 5.3 0.7 Q 21.15 1 51.65 1.55 Q 70.75 2.05 84.85 2.05 Q 88.45 2.05 91.85 2.05 Q 106.85 1.9 109.55 1.4 Q 113.15 1 117.05 1 Q 121 1 170.7 3.2 L 172.1 7.4 Q 172.1 11 170.4 18.25 Q 168.7 25.55 168.7 29 Q 168.7 32.25 169.7 35 M 168.7 29 L 168.7 29 "/>
    <text fill="#000000" font-family="NanumGothic, serif" font-size="24" font-weight="normal">
      <tspan x="19.5" y="43.2">Play SOUND</tspan>
    </text>
  </g>
  <g transform="matrix(1, 0, 0, 1, 309, 230.85)">
    <path stroke="#000000" stroke-opacity="1" stroke-width="1" fill="none" d="M 24.25 0.5 Q 20.5 0.5 16.7 1.8 Q 13.15 2.9 11.15 4.7 L 11.1 4.75 L 10.85 4.9 Q 6.55 7.45 4.2 10.95 Q 0.5 16.4 0.5 22.6 Q 0.5 28.65 3.1 33.5 Q 5.55 38.5 8.75 41.7 Q 11.95 44.85 14.5 46.25 Q 17.3 47.65 23 47.65 Q 27.55 47.65 32.85 45.15 Q 37.4 43.05 40.1 40.3 L 41.35 38.9 Q 43.5 36.35 45.05 33.2 Q 47.25 28.45 47.25 23.6 Q 47.25 15.2 41.5 8.5 L 41.1 8.05 Q 34.3 0.5 24.25 0.5 M 41.1 8.05 L 41.1 8.05 M 24.05 9.35 Q 21.8 9.35 19.5 10.15 Q 17.3 10.75 15.9 11.95 Q 13.35 13.55 11.85 15.7 Q 9.55 19 9.55 22.8 Q 9.55 26.45 11.15 29.45 Q 12.65 32.45 14.6 34.1 Q 16.5 35.8 18.2 36.6 Q 19.8 37.3 23 37.7 Q 26.05 38 29.25 36.5 Q 32.05 35.2 33.7 33.5 Q 35.5 31.65 36.7 29.25 Q 38.1 26.35 38.1 23.4 Q 38.1 18.1 34.3 13.95 Q 30.25 9.35 24.05 9.35 L 24.05 9.35 "/>
  </g>
  <g transform="matrix(1, 0, 0, 1, 44, 264.75)">
    <path stroke="#000000" stroke-opacity="1" stroke-width="1" fill="none" d="M 169.7 35 Q 170.75 37.85 170.75 39.85 Q 170.7 40.6 169.35 51.6 Q 168.7 52.3 168.7 54.2 Q 168.7 56.25 169.7 58.85 Q 170.75 61.35 170.75 64.35 Q 170.75 69.6 166.8 70 Q 157.25 70.2 146 70.95 Q 138.2 71.35 123.05 71.2 Q 109.25 70.95 108.2 70.95 Q 98.65 70.95 71.4 70.2 Q 49.95 69.6 34.25 70 Q 24.05 70.35 4.3 69.6 Q 1.75 61.75 1.75 51.05 Q 3.95 34.85 3.95 28 Q 2.95 22.9 3.95 20.15 Q 4.3 19.45 4.65 19 L 4.65 17.85 L 4.65 15.8 Q 4.65 6.65 5.3 0.7 Q 21.15 1 51.65 1.55 Q 70.75 2.05 84.85 2.05 Q 88.45 2.05 91.85 2.05 Q 106.85 1.9 109.55 1.4 Q 113.15 1 117.05 1 Q 121 1 170.7 3.2 L 172.1 7.4 Q 172.1 11 170.4 18.25 Q 168.7 25.55 168.7 29 Q 168.7 32.25 169.7 35 M 168.7 29 L 168.7 29 "/>
    <text fill="#000000" font-family="NanumGothic, serif" font-size="24" font-weight="normal">
      <tspan x="49.9" y="43.2">Sprites</tspan>
    </text>
  </g>
  <g transform="matrix(1, 0, 0, 1, 124.35, 377.4)">
    <path stroke="#000000" stroke-opacity="1" stroke-width="1" fill="none" d="M 169.7 35 Q 170.75 37.85 170.75 39.85 Q 170.7 40.6 169.35 51.6 Q 168.7 52.3 168.7 54.2 Q 168.7 56.25 169.7 58.85 Q 170.75 61.35 170.75 64.35 Q 170.75 69.6 166.8 70 Q 157.25 70.2 146 70.95 Q 138.2 71.35 123.05 71.2 Q 109.25 70.95 108.2 70.95 Q 98.65 70.95 71.4 70.2 Q 49.95 69.6 34.25 70 Q 24.05 70.35 4.3 69.6 Q 1.75 61.75 1.75 51.05 Q 3.95 34.85 3.95 28 Q 2.95 22.9 3.95 20.15 Q 4.3 19.45 4.65 19 L 4.65 17.85 L 4.65 15.8 Q 4.65 6.65 5.3 0.7 Q 21.15 1 51.65 1.55 Q 70.75 2.05 84.85 2.05 Q 88.45 2.05 91.85 2.05 Q 106.85 1.9 109.55 1.4 Q 113.15 1 117.05 1 Q 121 1 170.7 3.2 L 172.1 7.4 Q 172.1 11 170.4 18.25 Q 168.7 25.55 168.7 29 Q 168.7 32.25 169.7 35 M 168.7 29 L 168.7 29 "/>
    <text fill="#000000" font-family="NanumGothic, serif" font-size="24" font-weight="normal">
      <tspan x="49.2" y="43.2">Scenes</tspan>
    </text>
  </g>
  <g transform="matrix(1, 0, 0, 1, 484, 242.7)">
    <path stroke="#000000" stroke-opacity="1" stroke-width="1" fill="none" d="M 0 0 L 10 0 "/>
    <path stroke="#000000" stroke-opacity="1" stroke-width="1" fill="none" d="M 20 0 L 30 0 "/>
    <path stroke="#000000" stroke-opacity="1" stroke-width="1" fill="none" d="M 40 0 L 50 0 "/>
    <path stroke="#000000" stroke-opacity="1" stroke-width="1" fill="none" d="M 60 0 L 70 0 "/>
    <path stroke="#000000" stroke-opacity="1" stroke-width="1" fill="none" d="M 80 0 L 90 0 "/>
    <path stroke="#000000" stroke-opacity="1" stroke-width="1" fill="none" d="M 100 0 L 110 0 "/>
    <path stroke="#000000" stroke-opacity="1" stroke-width="1" fill="none" d="M 120 0 L 130 0 "/>
    <path stroke="#000000" stroke-opacity="1" stroke-width="1" fill="none" d="M 140 0 L 150 0 "/>
    <path stroke="#000000" stroke-opacity="1" stroke-width="1" fill="none" d="M 160 0 L 170 0 "/>
    <path stroke="#000000" stroke-opacity="1" stroke-width="1" fill="none" d="M 170 10 L 170 20 "/>
    <path stroke="#000000" stroke-opacity="1" stroke-width="1" fill="none" d="M 170 30 L 170 40 "/>
    <path stroke="#000000" stroke-opacity="1" stroke-width="1" fill="none" d="M 170 50 L 160 50 "/>
    <path stroke="#000000" stroke-opacity="1" stroke-width="1" fill="none" d="M 150 50 L 140 50 "/>
    <path stroke="#000000" stroke-opacity="1" stroke-width="1" fill="none" d="M 130 50 L 120 50 "/>
    <path stroke="#000000" stroke-opacity="1" stroke-width="1" fill="none" d="M 110 50 L 100 50 "/>
    <path stroke="#000000" stroke-opacity="1" stroke-width="1" fill="none" d="M 90 50 L 80 50 "/>
    <path stroke="#000000" stroke-opacity="1" stroke-width="1" fill="none" d="M 70 50 L 60 50 "/>
    <path stroke="#000000" stroke-opacity="1" stroke-width="1" fill="none" d="M 50 50 L 40 50 "/>
    <path stroke="#000000" stroke-opacity="1" stroke-width="1" fill="none" d="M 30 50 L 20 50 "/>
    <path stroke="#000000" stroke-opacity="1" stroke-width="1" fill="none" d="M 10 50 L 0 50 "/>
    <path stroke="#000000" stroke-opacity="1" stroke-width="1" fill="none" d="M 0 40 L 0 30 "/>
    <path stroke="#000000" stroke-opacity="1" stroke-width="1" fill="none" d="M 0 20 L 0 10 "/>
    <text fill="#000000" font-family="NanumGothic, serif" font-size="24" font-weight="normal">
      <tspan x="73.35" y="32.2">AI</tspan>
    </text>
  </g>
  <g transform="matrix(1, 0, 0, 1, 473, 339.85)">
    <path stroke="#000000" stroke-opacity="1" stroke-width="1" fill="none" d="M 0 0 L 10 0 "/>
    <path stroke="#000000" stroke-opacity="1" stroke-width="1" fill="none" d="M 20 0 L 30 0 "/>
    <path stroke="#000000" stroke-opacity="1" stroke-width="1" fill="none" d="M 40 0 L 50 0 "/>
    <path stroke="#000000" stroke-opacity="1" stroke-width="1" fill="none" d="M 60 0 L 70 0 "/>
    <path stroke="#000000" stroke-opacity="1" stroke-width="1" fill="none" d="M 80 0 L 90 0 "/>
    <path stroke="#000000" stroke-opacity="1" stroke-width="1" fill="none" d="M 100 0 L 110 0 "/>
    <path stroke="#000000" stroke-opacity="1" stroke-width="1" fill="none" d="M 120 0 L 130 0 "/>
    <path stroke="#000000" stroke-opacity="1" stroke-width="1" fill="none" d="M 140 0 L 150 0 "/>
    <path stroke="#000000" stroke-opacity="1" stroke-width="1" fill="none" d="M 160 0 L 170 0 "/>
    <path stroke="#000000" stroke-opacity="1" stroke-width="1" fill="none" d="M 170 10 L 170 20 "/>
    <path stroke="#000000" stroke-opacity="1" stroke-width="1" fill="none" d="M 170 30 L 170 40 "/>
    <path stroke="#000000" stroke-opacity="1" stroke-width="1" fill="none" d="M 170 50 L 160 50 "/>
    <path stroke="#000000" stroke-opacity="1" stroke-width="1" fill="none" d="M 150 50 L 140 50 "/>
    <path stroke="#000000" stroke-opacity="1" stroke-width="1" fill="none" d="M 130 50 L 120 50 "/>
    <path stroke="#000000" stroke-opacity="1" stroke-width="1" fill="none" d="M 110 50 L 100 50 "/>
    <path stroke="#000000" stroke-opacity="1" stroke-width="1" fill="none" d="M 90 50 L 80 50 "/>
    <path stroke="#000000" stroke-opacity="1" stroke-width="1" fill="none" d="M 70 50 L 60 50 "/>
    <path stroke="#000000" stroke-opacity="1" stroke-width="1" fill="none" d="M 50 50 L 40 50 "/>
    <path stroke="#000000" stroke-opacity="1" stroke-width="1" fill="none" d="M 30 50 L 20 50 "/>
    <path stroke="#000000" stroke-opacity="1" stroke-width="1" fill="none" d="M 10 50 L 0 50 "/>
    <path stroke="#000000" stroke-opacity="1" stroke-width="1" fill="none" d="M 0 40 L 0 30 "/>
    <path stroke="#000000" stroke-opacity="1" stroke-width="1" fill="none" d="M 0 20 L 0 10 "/>
    <text fill="#000000" font-family="NanumGothic, serif" font-size="24" font-weight="normal">
      <tspan x="46.3" y="32.2">Physics</tspan>
    </text>
  </g>
  <g transform="matrix(1, 0, 0, 1, 345, 419.9)">
    <path stroke="#000000" stroke-opacity="1" stroke-width="1" fill="none" d="M 0 0 L 10 0 "/>
    <path stroke="#000000" stroke-opacity="1" stroke-width="1" fill="none" d="M 20 0 L 30 0 "/>
    <path stroke="#000000" stroke-opacity="1" stroke-width="1" fill="none" d="M 40 0 L 50 0 "/>
    <path stroke="#000000" stroke-opacity="1" stroke-width="1" fill="none" d="M 60 0 L 70 0 "/>
    <path stroke="#000000" stroke-opacity="1" stroke-width="1" fill="none" d="M 80 0 L 90 0 "/>
    <path stroke="#000000" stroke-opacity="1" stroke-width="1" fill="none" d="M 100 0 L 110 0 "/>
    <path stroke="#000000" stroke-opacity="1" stroke-width="1" fill="none" d="M 120 0 L 130 0 "/>
    <path stroke="#000000" stroke-opacity="1" stroke-width="1" fill="none" d="M 140 0 L 150 0 "/>
    <path stroke="#000000" stroke-opacity="1" stroke-width="1" fill="none" d="M 160 0 L 170 0 "/>
    <path stroke="#000000" stroke-opacity="1" stroke-width="1" fill="none" d="M 170 10 L 170 20 "/>
    <path stroke="#000000" stroke-opacity="1" stroke-width="1" fill="none" d="M 170 30 L 170 40 "/>
    <path stroke="#000000" stroke-opacity="1" stroke-width="1" fill="none" d="M 170 50 L 160 50 "/>
    <path stroke="#000000" stroke-opacity="1" stroke-width="1" fill="none" d="M 150 50 L 140 50 "/>
    <path stroke="#000000" stroke-opacity="1" stroke-width="1" fill="none" d="M 130 50 L 120 50 "/>
    <path stroke="#000000" stroke-opacity="1" stroke-width="1" fill="none" d="M 110 50 L 100 50 "/>
    <path stroke="#000000" stroke-opacity="1" stroke-width="1" fill="none" d="M 90 50 L 80 50 "/>
    <path stroke="#000000" stroke-opacity="1" stroke-width="1" fill="none" d="M 70 50 L 60 50 "/>
    <path stroke="#000000" stroke-opacity="1" stroke-width="1" fill="none" d="M 50 50 L 40 50 "/>
    <path stroke="#000000" stroke-opacity="1" stroke-width="1" fill="none" d="M 30 50 L 20 50 "/>
    <path stroke="#000000" stroke-opacity="1" stroke-width="1" fill="none" d="M 10 50 L 0 50 "/>
    <path stroke="#000000" stroke-opacity="1" stroke-width="1" fill="none" d="M 0 40 L 0 30 "/>
    <path stroke="#000000" stroke-opacity="1" stroke-width="1" fill="none" d="M 0 20 L 0 10 "/>
    <text fill="#000000" font-family="NanumGothic, serif" font-size="24" font-weight="normal">
      <tspan x="54.45" y="32.2">Maps</tspan>
    </text>
  </g>
  <g transform="matrix(1, 0, 0, 1, 0, 0)">
    <path stroke="#000000" stroke-opacity="0.00784313725490196" stroke-width="10" fill="none" d="M 10 239.85 Q 329 223.35 662 217.85 "/>
    <path stroke="#000000" stroke-opacity="1" stroke-width="2" fill="none" d="M 10 239.85 L 13.2 239.7 L 16.4 239.5 L 19.55 239.35 "/>
    <path stroke="#000000" stroke-opacity="1" stroke-width="2" fill="none" d="M 29.15 238.85 L 32.35 238.7 L 35.55 238.55 L 38.75 238.4 "/>
    <path stroke="#000000" stroke-opacity="1" stroke-width="2" fill="none" d="M 48.35 237.9 L 51.55 237.75 L 54.75 237.6 L 57.95 237.45 "/>
    <path stroke="#000000" stroke-opacity="1" stroke-width="2" fill="none" d="M 67.55 236.95 L 70.75 236.8 L 73.95 236.65 L 77.15 236.5 "/>
    <path stroke="#000000" stroke-opacity="1" stroke-width="2" fill="none" d="M 86.75 236.05 L 89.95 235.9 L 93.2 235.75 L 96.4 235.6 L 99.6 235.45 "/>
    <path stroke="#000000" stroke-opacity="1" stroke-width="2" fill="none" d="M 109.25 235 L 112.45 234.85 L 115.65 234.7 L 118.85 234.55 "/>
    <path stroke="#000000" stroke-opacity="1" stroke-width="2" fill="none" d="M 128.5 234.1 L 131.75 234 L 134.95 233.85 L 138.15 233.7 "/>
    <path stroke="#000000" stroke-opacity="1" stroke-width="2" fill="none" d="M 147.8 233.25 L 151.05 233.1 L 154.25 233 L 157.5 232.85 "/>
    <path stroke="#000000" stroke-opacity="1" stroke-width="2" fill="none" d="M 167.15 232.45 L 170.4 232.3 L 173.6 232.15 L 176.85 232 "/>
    <path stroke="#000000" stroke-opacity="1" stroke-width="2" fill="none" d="M 189.75 231.45 L 192.95 231.35 L 196.2 231.2 L 199.45 231.05 "/>
    <path stroke="#000000" stroke-opacity="1" stroke-width="2" fill="none" d="M 209.15 230.7 L 212.35 230.55 L 215.6 230.4 L 218.85 230.3 "/>
    <path stroke="#000000" stroke-opacity="1" stroke-width="2" fill="none" d="M 228.55 229.9 L 231.8 229.75 L 235 229.65 L 238.25 229.5 "/>
    <path stroke="#000000" stroke-opacity="1" stroke-width="2" fill="none" d="M 248 229.15 L 251.2 229 L 254.45 228.9 L 257.7 228.8 "/>
    <path stroke="#000000" stroke-opacity="1" stroke-width="2" fill="none" d="M 267.45 228.4 L 270.7 228.3 L 273.95 228.15 L 277.2 228.05 "/>
    <path stroke="#000000" stroke-opacity="1" stroke-width="2" fill="none" d="M 286.95 227.7 L 290.2 227.6 L 293.45 227.45 L 296.7 227.35 "/>
    <path stroke="#000000" stroke-opacity="1" stroke-width="2" fill="none" d="M 309.7 226.9 L 312.95 226.75 L 316.2 226.65 L 319.45 226.55 "/>
    <path stroke="#000000" stroke-opacity="1" stroke-width="2" fill="none" d="M 329.25 226.2 L 332.5 226.1 L 335.75 226 L 339 225.9 "/>
    <path stroke="#000000" stroke-opacity="1" stroke-width="2" fill="none" d="M 348.8 225.55 L 352.05 225.45 L 355.35 225.35 L 358.6 225.25 "/>
    <path stroke="#000000" stroke-opacity="1" stroke-width="2" fill="none" d="M 368.4 224.9 L 371.65 224.8 L 374.95 224.7 L 378.2 224.6 "/>
    <path stroke="#000000" stroke-opacity="1" stroke-width="2" fill="none" d="M 388 224.3 L 391.3 224.2 L 394.55 224.1 L 397.85 224 "/>
    <path stroke="#000000" stroke-opacity="1" stroke-width="2" fill="none" d="M 407.65 223.7 L 410.95 223.6 L 414.2 223.5 L 417.5 223.45 "/>
    <path stroke="#000000" stroke-opacity="1" stroke-width="2" fill="none" d="M 427.35 223.15 L 430.6 223.05 L 433.9 222.95 L 437.2 222.85 "/>
    <path stroke="#000000" stroke-opacity="1" stroke-width="2" fill="none" d="M 447.05 222.6 L 450.3 222.5 L 453.6 222.4 L 456.9 222.3 "/>
    <path stroke="#000000" stroke-opacity="1" stroke-width="2" fill="none" d="M 466.75 222.05 L 470.05 221.95 L 473.35 221.9 L 476.6 221.8 "/>
    <path stroke="#000000" stroke-opacity="1" stroke-width="2" fill="none" d="M 486.5 221.55 L 489.8 221.45 L 493.1 221.35 L 496.4 221.3 "/>
    <path stroke="#000000" stroke-opacity="1" stroke-width="2" fill="none" d="M 509.55 220.95 L 512.85 220.9 L 516.15 220.8 L 519.45 220.7 "/>
    <path stroke="#000000" stroke-opacity="1" stroke-width="2" fill="none" d="M 529.35 220.5 L 532.65 220.4 L 535.95 220.35 L 539.25 220.25 "/>
    <path stroke="#000000" stroke-opacity="1" stroke-width="2" fill="none" d="M 549.2 220.05 L 552.5 219.95 L 555.8 219.9 L 559.1 219.8 "/>
    <path stroke="#000000" stroke-opacity="1" stroke-width="2" fill="none" d="M 569.05 219.6 L 572.35 219.55 L 575.65 219.45 L 578.95 219.4 "/>
    <path stroke="#000000" stroke-opacity="1" stroke-width="2" fill="none" d="M 588.9 219.2 L 592.2 219.15 L 595.55 219.05 L 598.85 219 "/>
    <path stroke="#000000" stroke-opacity="1" stroke-width="2" fill="none" d="M 608.8 218.8 L 612.15 218.75 L 615.45 218.65 L 618.75 218.6 "/>
    <path stroke="#000000" stroke-opacity="1" stroke-width="2" fill="none" d="M 628.75 218.45 L 632.05 218.35 L 635.4 218.3 L 638.7 218.25 "/>
    <path stroke="#000000" stroke-opacity="1" stroke-width="2" fill="none" d="M 648.7 218.05 L 652 218 L 655.35 217.95 L 658.65 217.9 "/>
  </g>
  <g transform="matrix(1, 0, 0, 1, 0, 0)">
    <path stroke="#000000" stroke-opacity="0.00784313725490196" stroke-width="10" fill="none" d="M 334 230.85 Q 304 140.85 199.3 83.25 "/>
    <path stroke="#000000" stroke-opacity="1" stroke-width="1" fill="none" d="M 334 230.85 Q 304 140.85 199.3 83.25 "/>
    <path stroke="#000000" stroke-opacity="1" stroke-width="1" fill="none" d="M 203.25 96.85 L 199.3 83.25 L 212.9 79.3 "/>
  </g>
  <g transform="matrix(1, 0, 0, 1, 0, 0)">
    <path stroke="#000000" stroke-opacity="0.00784313725490196" stroke-width="10" fill="none" d="M 334 230.85 Q 365 155.85 441.05 82 "/>
    <path stroke="#000000" stroke-opacity="1" stroke-width="1" fill="none" d="M 334 230.85 Q 365 155.85 441.05 82 "/>
    <path stroke="#000000" stroke-opacity="1" stroke-width="1" fill="none" d="M 426.9 81.8 L 441.05 82 L 440.85 96.15 "/>
  </g>
  <g transform="matrix(1, 0, 0, 1, 0, 0)">
    <path stroke="#000000" stroke-opacity="0.00784313725490196" stroke-width="10" fill="none" d="M 309 230.85 Q 261.4 172.85 195.4 151.85 "/>
    <path stroke="#000000" stroke-opacity="1" stroke-width="1" fill="none" d="M 309 230.85 Q 261.4 172.85 195.4 151.85 "/>
    <path stroke="#000000" stroke-opacity="1" stroke-width="1" fill="none" d="M 201.9 164.4 L 195.4 151.85 L 207.95 145.35 "/>
  </g>
  <g transform="matrix(1, 0, 0, 1, 0, 0)">
    <path stroke="#000000" stroke-opacity="0.00784313725490196" stroke-width="10" fill="none" d="M 309 255.85 Q 262 260.85 218 300.75 "/>
    <path stroke="#000000" stroke-opacity="1" stroke-width="1" fill="none" d="M 309 255.85 Q 262 260.85 218 300.75 "/>
    <path stroke="#000000" stroke-opacity="1" stroke-width="1" fill="none" d="M 232.15 301.45 L 218 300.75 L 218.7 286.6 "/>
  </g>
  <g transform="matrix(1, 0, 0, 1, 0, 0)">
    <path stroke="#000000" stroke-opacity="0.00784313725490196" stroke-width="10" fill="none" d="M 309 280.85 Q 258 321.9 211.4 377.4 "/>
    <path stroke="#000000" stroke-opacity="1" stroke-width="1" fill="none" d="M 309 280.85 Q 258 321.9 211.4 377.4 "/>
    <path stroke="#000000" stroke-opacity="1" stroke-width="1" fill="none" d="M 225.5 376.15 L 211.4 377.4 L 210.15 363.3 "/>
  </g>
  <g transform="matrix(1, 0, 0, 1, 0, 0)">
    <path stroke="#000000" stroke-opacity="0.00784313725490196" stroke-width="10" fill="none" d="M 334 280.85 Q 385.5 348.4 430.05 419.9 "/>
    <path stroke="#000000" stroke-opacity="1" stroke-width="1" fill="none" d="M 334 280.85 Q 385.5 348.4 430.05 419.9 "/>
    <path stroke="#000000" stroke-opacity="1" stroke-width="1" fill="none" d="M 433.25 406.15 L 430.05 419.9 L 416.3 416.7 "/>
  </g>
  <g transform="matrix(1, 0, 0, 1, 0, 0)">
    <path stroke="#000000" stroke-opacity="0.00784313725490196" stroke-width="10" fill="none" d="M 359 280.85 Q 405 325.85 473 364.85 "/>
    <path stroke="#000000" stroke-opacity="1" stroke-width="1" fill="none" d="M 359 280.85 Q 405 325.85 473 364.85 "/>
    <path stroke="#000000" stroke-opacity="1" stroke-width="1" fill="none" d="M 469.3 351.2 L 473 364.85 L 459.35 368.55 "/>
  </g>
  <g transform="matrix(1, 0, 0, 1, 0, 0)">
    <path stroke="#000000" stroke-opacity="0.00784313725490196" stroke-width="10" fill="none" d="M 359 255.85 Q 428 249.3 484 267.7 "/>
    <path stroke="#000000" stroke-opacity="1" stroke-width="1" fill="none" d="M 359 255.85 Q 428 249.3 484 267.7 "/>
    <path stroke="#000000" stroke-opacity="1" stroke-width="1" fill="none" d="M 477.65 255.1 L 484 267.7 L 471.4 274.05 "/>
  </g>
  <g transform="matrix(1, 0, 0, 1, 0, 0)">
    <path stroke="#000000" stroke-opacity="0.00784313725490196" stroke-width="10" fill="none" d="M 359 230.85 Q 387.75 194.75 411.5 158.65 "/>
    <path stroke="#000000" stroke-opacity="1" stroke-width="1" fill="none" d="M 359 230.85 Q 387.75 194.75 411.5 158.65 "/>
    <path stroke="#000000" stroke-opacity="1" stroke-width="1" fill="none" d="M 397.65 161.5 L 411.5 158.65 L 414.35 172.5 "/>
  </g>
</svg>
